<svg height="512pt" viewBox="0 -29 512 512" width="512pt" xmlns="http://www.w3.org/2000/svg"><path d="m132.042969 79.074219v-39.523438h-71.488281v109.375zm0 0"/><path d="m256 164.355469c-12.34375 0-22.386719 10.042969-22.386719 22.382812 0 12.34375 10.042969 22.386719 22.386719 22.386719s22.382812-10.042969 22.382812-22.386719c.003907-12.339843-10.039062-22.382812-22.382812-22.382812zm0 0"/><path d="m451.445312 233.007812 39.539063 38.632813 21.015625-21.507813-256-250.132812-256 250.136719 21.015625 21.507812 39.539063-38.636719v220.019532h131.054687v-158.367188h128.78125v158.367188h131.054687zm-195.445312 6.1875c-28.925781 0-52.457031-23.53125-52.457031-52.453124 0-28.925782 23.53125-52.457032 52.457031-52.457032s52.453125 23.53125 52.453125 52.457032c.003906 28.921874-23.527344 52.453124-52.453125 52.453124zm0 0"/><path d="m221.675781 324.730469h68.644531v128.296875h-68.644531zm0 0"/></svg>